<?xml version="1.0" encoding="UTF-8"?>
<!DOCTYPE svg PUBLIC "-//W3C//DTD SVG 1.1//EN" "http://www.w3.org/Graphics/SVG/1.1/DTD/svg11.dtd">
<!-- Creator: CorelDRAW -->
<svg xmlns="http://www.w3.org/2000/svg" xml:space="preserve" width="91.205mm" height="91.205mm" version="1.1" style="shape-rendering:geometricPrecision; text-rendering:geometricPrecision; image-rendering:optimizeQuality; fill-rule:evenodd; clip-rule:evenodd"
viewBox="0 0 1597.34 1597.34"
 xmlns:xlink="http://www.w3.org/1999/xlink"
 xmlns:xodm="http://www.corel.com/coreldraw/odm/2003">
 <defs>
  <style type="text/css">
   <![CDATA[
    .str0 {stroke:#2B2A29;stroke-width:3.5;stroke-miterlimit:22.9256}
    .str1 {stroke:#2B2A29;stroke-width:1.33;stroke-miterlimit:22.9256}
    .fil0 {fill:#2B2A29}
    .fil1 {fill:#FEFEFE;fill-rule:nonzero}
   ]]>
  </style>
 </defs>
 <g id="Слой_x0020_1">
  <metadata id="CorelCorpID_0Corel-Layer"/>
  <circle class="fil0 str0" cx="798.67" cy="798.67" r="796.92"/>
  <path class="fil1 str1" d="M267.44 744.59l0 -187.41 24.87 0 0 165.43 92.14 0 0 21.99 -117 0zm180.04 0l0 -79.4 -72.24 -108.02 29.84 0 37.04 56.71c6.89,10.51 13.31,21.03 19.15,31.54 5.71,-9.82 12.65,-20.81 20.72,-33.02l36.3 -55.23 28.92 0 -74.86 108.02 0 79.4 -24.87 0zm244.52 -187.41l24.87 0 0 108.23c0,18.84 -2.14,33.81 -6.37,44.89 -4.28,11.04 -11.95,20.07 -23.04,27 -11.12,6.94 -25.65,10.43 -43.71,10.43 -17.49,0 -31.85,-3.01 -42.97,-9.07 -11.17,-6.06 -19.11,-14.79 -23.86,-26.26 -4.75,-11.47 -7.15,-27.14 -7.15,-46.98l0 -108.23 24.87 0 0 108.19c0,16.27 1.53,28.31 4.54,35.99 3.01,7.72 8.16,13.7 15.53,17.84 7.33,4.19 16.32,6.28 26.92,6.28 18.15,0 31.1,-4.15 38.83,-12.39 7.72,-8.29 11.56,-24.17 11.56,-47.72l0 -108.19zm65.22 187.41l0 -187.41 24.87 0 0 92.92 93.1 -92.92 33.59 0 -78.61 76 82.01 111.42 -32.72 0 -66.7 -94.58 -30.67 29.66 0 64.91 -24.87 0zm179.82 0l0 -187.41 24.87 0 0 187.41 -24.87 0zm68.28 0l0 -187.41 25.48 0 98.33 147.1 0 -147.1 23.82 0 0 187.41 -25.48 0 -98.33 -147.1 0 147.1 -23.82 0zm168.74 0l71.89 -187.41 27.27 0 76.3 187.41 -28.23 0 -21.68 -56.8 -78.92 0 -20.33 56.8 -26.31 0zm53.92 -76.96l63.87 0 -19.54 -51.96c-5.89,-15.79 -10.34,-28.84 -13.44,-39.13 -2.57,12.22 -6.02,24.21 -10.34,36.08l-20.55 55.01zm-982.34 369.38l0 -187.41 126.43 0 0 21.99 -101.56 0 0 58.37 87.95 0 0 21.99 -87.95 0 0 85.07 -24.87 0zm123.59 0l71.89 -187.41 27.27 0 76.3 187.41 -28.23 0 -21.68 -56.8 -78.92 0 -20.33 56.8 -26.31 0zm53.92 -76.96l63.87 0 -19.54 -51.96c-5.89,-15.79 -10.34,-28.84 -13.44,-39.13 -2.57,12.22 -6.02,24.21 -10.34,36.08l-20.55 55.01zm133.1 16.75l23.3 -2.09c1.09,9.42 3.66,17.15 7.72,23.21 4.06,6.02 10.34,10.91 18.84,14.66 8.51,3.71 18.11,5.58 28.75,5.58 9.47,0 17.8,-1.4 25.04,-4.23 7.24,-2.84 12.61,-6.72 16.14,-11.65 3.53,-4.93 5.32,-10.29 5.32,-16.05 0,-5.85 -1.7,-10.95 -5.1,-15.36 -3.4,-4.36 -9.03,-8.03 -16.88,-11.04 -5.02,-1.92 -16.14,-4.97 -33.37,-9.12 -17.23,-4.14 -29.27,-8.03 -36.17,-11.69 -8.94,-4.71 -15.57,-10.56 -19.94,-17.49 -4.41,-6.94 -6.59,-14.74 -6.59,-23.34 0,-9.51 2.71,-18.37 8.07,-26.57 5.36,-8.25 13.17,-14.48 23.51,-18.76 10.29,-4.28 21.77,-6.41 34.38,-6.41 13.87,0 26.13,2.22 36.73,6.72 10.6,4.45 18.76,11.04 24.47,19.76 5.71,8.68 8.77,18.54 9.21,29.54l-23.82 1.83c-1.26,-11.82 -5.58,-20.77 -12.96,-26.79 -7.37,-6.06 -18.28,-9.07 -32.68,-9.07 -15.01,0 -25.96,2.75 -32.81,8.25 -6.85,5.5 -10.29,12.13 -10.29,19.89 0,6.72 2.44,12.26 7.29,16.62 4.8,4.32 17.23,8.81 37.39,13.35 20.15,4.58 33.98,8.55 41.49,11.95 10.86,5.02 18.93,11.34 24.13,19.06 5.19,7.68 7.76,16.53 7.76,26.57 0,9.99 -2.84,19.33 -8.55,28.14 -5.71,8.81 -13.87,15.66 -24.56,20.55 -10.69,4.89 -22.69,7.33 -36.08,7.33 -16.93,0 -31.1,-2.49 -42.53,-7.42 -11.47,-4.93 -20.42,-12.35 -26.92,-22.29 -6.54,-9.9 -9.95,-21.11 -10.3,-33.64zm183.75 60.2l0 -187.41 24.87 0 0 77.22 96.85 0 0 -77.22 24.87 0 0 187.41 -24.87 0 0 -88.21 -96.85 0 0 88.21 -24.87 0zm192.17 0l0 -187.41 24.87 0 0 187.41 -24.87 0zm60.95 -91.22c0,-31.06 8.38,-55.4 25.08,-72.99 16.71,-17.58 38.26,-26.35 64.7,-26.35 17.32,0 32.89,4.14 46.81,12.39 13.87,8.25 24.47,19.76 31.76,34.55 7.29,14.75 10.95,31.5 10.95,50.21 0,18.98 -3.84,35.99 -11.52,50.95 -7.68,15.01 -18.54,26.35 -32.59,34.03 -14.09,7.72 -29.27,11.56 -45.54,11.56 -17.67,0 -33.42,-4.28 -47.33,-12.78 -13.87,-8.51 -24.43,-20.11 -31.58,-34.86 -7.16,-14.7 -10.73,-30.28 -10.73,-46.72zm25.65 0.44c0,22.55 6.06,40.31 18.19,53.27 12.13,12.96 27.35,19.46 45.68,19.46 18.67,0 33.98,-6.54 46.07,-19.63 12.04,-13.09 18.06,-31.67 18.06,-55.75 0,-15.22 -2.57,-28.53 -7.72,-39.87 -5.15,-11.34 -12.7,-20.15 -22.6,-26.39 -9.95,-6.24 -21.07,-9.38 -33.42,-9.38 -17.54,0 -32.63,6.02 -45.28,18.06 -12.65,12.04 -18.98,32.11 -18.98,60.25zm185.28 90.78l0 -187.41 25.48 0 98.33 147.1 0 -147.1 23.82 0 0 187.41 -25.48 0 -98.33 -147.1 0 147.1 -23.82 0z"/>
 </g>
</svg>
